<svg width="220" height="212" viewBox="0 0 220 212" fill="none" xmlns="http://www.w3.org/2000/svg">
<g clip-path="url(#clip0)">
<path d="M107.886 212C48.398 212 0 164.452 0 106.005C0 47.5534 48.398 0 107.886 0C131.539 0 154.127 7.49626 173.208 21.6813C176.923 24.4402 177.699 29.6943 174.943 33.4142C172.193 37.1314 166.95 37.9173 163.235 35.1557C147.061 23.1321 127.921 16.7771 107.886 16.7771C57.6295 16.7771 16.7415 56.8046 16.7415 106.003C16.7415 155.198 57.6295 195.223 107.886 195.223C158.145 195.223 199.034 155.198 199.034 106.003C199.034 99.1121 198.268 92.4125 196.761 86.0871C195.69 81.5813 198.464 77.0566 202.96 75.98C207.441 74.9033 211.969 77.6838 213.046 82.1923C214.856 89.7935 215.775 97.8039 215.775 106.005C215.772 164.452 167.377 212 107.886 212Z" fill="#45CC63"/>
<path d="M105.772 156.827C103.556 156.827 101.426 155.946 99.8523 154.372L42.6713 97.0745C39.4025 93.7987 39.4025 88.4881 42.6713 85.2124C45.9401 81.9366 51.2395 81.9339 54.5083 85.2124L105.426 136.233L205.386 24.0284C208.466 20.5723 213.76 20.2736 217.204 23.3582C220.652 26.4428 220.953 31.7454 217.875 35.2015L112.017 154.024C110.483 155.747 108.31 156.759 106.011 156.824C105.928 156.827 105.85 156.827 105.772 156.827Z" fill="#45CC63"/>
</g>
<defs>
<clipPath id="clip0">
<rect width="220" height="212" fill="white"/>
</clipPath>
</defs>
</svg>
