<svg width="140" height="70" viewBox="0 0 140 70" fill="none" xmlns="http://www.w3.org/2000/svg">
<g clip-path="url(#clip0)">
<path d="M25.2928 47.6468C25.864 47.6468 26.3344 47.596 26.7096 47.5001C27.0792 47.4042 27.376 47.2745 27.6 47.1109C27.8296 46.9417 27.9808 46.7499 28.0704 46.5243C28.1544 46.2987 28.1992 46.0448 28.1992 45.7628C28.1992 45.1705 27.9248 44.6798 27.3704 44.2906C26.816 43.8957 25.864 43.4783 24.52 43.0214C23.932 42.8127 23.344 42.5758 22.756 42.3051C22.168 42.0343 21.6416 41.6959 21.1712 41.2841C20.7064 40.878 20.3256 40.3816 20.0344 39.8006C19.7376 39.214 19.592 38.5033 19.592 37.6685C19.592 36.8336 19.7488 36.0834 20.0568 35.4122C20.3704 34.741 20.8128 34.1713 21.3784 33.6974C21.9496 33.2293 22.644 32.8683 23.456 32.6144C24.268 32.3662 25.1808 32.2365 26.2 32.2365C27.4096 32.2365 28.4568 32.3662 29.3416 32.6314C30.2208 32.8908 30.9488 33.1785 31.52 33.4887L30.3496 36.7039C29.8512 36.4444 29.2912 36.2132 28.6808 36.0101C28.0648 35.8127 27.3256 35.7112 26.4632 35.7112C25.4944 35.7112 24.8 35.8465 24.3744 36.1173C23.9488 36.388 23.7416 36.7998 23.7416 37.3582C23.7416 37.6854 23.82 37.9674 23.9712 38.193C24.128 38.4187 24.352 38.6217 24.632 38.8079C24.9176 38.9884 25.248 39.152 25.6176 39.3043C25.9928 39.4509 26.4016 39.6032 26.8496 39.7611C27.7848 40.1052 28.5968 40.4493 29.2856 40.7877C29.98 41.1318 30.5512 41.5267 31.0104 41.9779C31.4696 42.4292 31.8112 42.9594 32.0352 43.5686C32.2592 44.1834 32.3712 44.9223 32.3712 45.791C32.3712 47.4776 31.7832 48.7918 30.6128 49.7225C29.4368 50.6532 27.6616 51.1158 25.2928 51.1158C24.4976 51.1158 23.7808 51.0707 23.1424 50.9748C22.504 50.8789 21.9384 50.7604 21.4456 50.6194C20.9528 50.484 20.5272 50.3374 20.1744 50.1794C19.8216 50.0215 19.5248 49.8748 19.2784 49.7338L20.4208 46.4961C20.9584 46.7894 21.6192 47.0545 22.4032 47.2914C23.1928 47.5283 24.156 47.6468 25.2928 47.6468Z" fill="white"/>
<path d="M47.6424 32.6539V36.1286H42.2216V50.7548H38.1784V36.1286H32.7632V32.6539H47.6424Z" fill="white"/>
<path fill-rule="evenodd" clip-rule="evenodd" d="M66.1 41.6902C66.1 43.2414 65.8704 44.6008 65.4168 45.7797C64.9576 46.953 64.3304 47.9345 63.5352 48.7298C62.74 49.5195 61.7936 50.1174 60.696 50.5179C59.5984 50.9184 58.4168 51.1158 57.1568 51.1158C55.9304 51.1158 54.7712 50.9184 53.6848 50.5179C52.5928 50.1174 51.6408 49.5195 50.8288 48.7298C50.0168 47.9345 49.3784 46.953 48.9136 45.7797C48.4488 44.6008 48.2136 43.2414 48.2136 41.6902C48.2136 40.1391 48.4544 38.7797 48.9416 37.6064C49.4232 36.4275 50.0728 35.4404 50.896 34.6394C51.7192 33.8385 52.6656 33.2405 53.7464 32.8401C54.8272 32.4396 55.964 32.2365 57.1568 32.2365C58.3832 32.2365 59.5424 32.4396 60.6288 32.8401C61.7208 33.2405 62.6672 33.8385 63.4848 34.6394C64.2968 35.4404 64.9352 36.4275 65.4 37.6064C65.8648 38.7797 66.1 40.1391 66.1 41.6902ZM52.3856 41.6902C52.3856 42.5815 52.4976 43.3824 52.7104 44.0932C52.9288 44.8095 53.2368 45.4187 53.6456 45.932C54.0488 46.4453 54.5472 46.8458 55.1352 47.1222C55.7232 47.4042 56.3952 47.5396 57.1568 47.5396C57.9016 47.5396 58.568 47.4042 59.1672 47.1222C59.7608 46.8458 60.2648 46.4453 60.668 45.932C61.0768 45.4187 61.3848 44.8095 61.6032 44.0932C61.8216 43.3824 61.928 42.5815 61.928 41.6902C61.928 40.8047 61.8216 39.9981 61.6032 39.276C61.3848 38.554 61.0768 37.9336 60.668 37.4203C60.2648 36.907 59.7608 36.5121 59.1672 36.2357C58.568 35.9537 57.9016 35.8127 57.1568 35.8127C56.3952 35.8127 55.7232 35.9593 55.1352 36.247C54.5472 36.5347 54.0488 36.9352 53.6456 37.4485C53.2368 37.9618 52.9288 38.5822 52.7104 39.3043C52.4976 40.0263 52.3856 40.8216 52.3856 41.6902Z" fill="white"/>
<path fill-rule="evenodd" clip-rule="evenodd" d="M74.0856 32.4452C76.7792 32.4452 78.8456 32.9303 80.2792 33.8949C81.7128 34.8651 82.4352 36.3655 82.4352 38.4017C82.4352 39.6709 82.144 40.7031 81.5672 41.4928C80.9848 42.2882 80.1504 42.9086 79.064 43.3599C79.428 43.8168 79.8032 44.3301 80.2008 44.9167C80.5984 45.4977 80.996 46.1069 81.3824 46.7443C81.7744 47.3817 82.1496 48.0416 82.508 48.7298C82.872 49.4179 83.208 50.0892 83.5216 50.7548H79.0024C78.672 50.1625 78.336 49.559 78 48.9498C77.6584 48.3406 77.3112 47.7483 76.9584 47.173C76.6 46.6033 76.2528 46.0561 75.9056 45.5428C75.5584 45.0295 75.2112 44.5613 74.864 44.1439H72.8648V50.7548H68.8216V32.919C69.7064 32.7442 70.6136 32.6201 71.56 32.5524C72.5008 32.4847 73.3408 32.4452 74.0856 32.4452ZM74.3208 35.9199C74.024 35.9199 73.7608 35.9311 73.5256 35.9481C73.296 35.965 73.072 35.9819 72.8648 35.9988V40.9062H74.0072C75.5304 40.9062 76.6168 40.7144 77.272 40.3309C77.9328 39.9529 78.2576 39.2986 78.2576 38.3735C78.2576 37.488 77.9272 36.8562 77.2608 36.4839C76.5944 36.106 75.6144 35.9199 74.3208 35.9199Z" fill="white"/>
<path d="M85.4648 32.6539H89.508V50.7548H85.4648V32.6539Z" fill="white"/>
<path d="M93.008 50.7548V32.6539H105.143V36.0778H97.0568V39.6258H104.236V42.9707H97.0568V47.3309H105.737V50.7548H93.008Z" fill="white"/>
<path d="M112.972 47.6468C113.543 47.6468 114.014 47.596 114.383 47.5001C114.758 47.4042 115.055 47.2745 115.279 47.1109C115.503 46.9417 115.66 46.7499 115.744 46.5243C115.834 46.2987 115.873 46.0448 115.873 45.7628C115.873 45.1705 115.598 44.6798 115.044 44.2906C114.495 43.8957 113.543 43.4783 112.194 43.0214C111.606 42.8127 111.018 42.5758 110.43 42.3051C109.842 42.0343 109.315 41.6959 108.85 41.2841C108.386 40.878 108.005 40.3816 107.708 39.8006C107.417 39.214 107.271 38.5033 107.271 37.6685C107.271 36.8336 107.422 36.0834 107.736 35.4122C108.044 34.741 108.486 34.1713 109.058 33.6974C109.629 33.2293 110.318 32.8683 111.13 32.6144C111.942 32.3662 112.86 32.2365 113.879 32.2365C115.089 32.2365 116.136 32.3662 117.015 32.6314C117.9 32.8908 118.622 33.1785 119.194 33.4887L118.029 36.7039C117.525 36.4444 116.97 36.2132 116.354 36.0101C115.744 35.8127 115.005 35.7112 114.137 35.7112C113.168 35.7112 112.474 35.8465 112.054 36.1173C111.628 36.388 111.415 36.7998 111.415 37.3582C111.415 37.6854 111.494 37.9674 111.65 38.193C111.807 38.4187 112.026 38.6217 112.311 38.8079C112.597 38.9884 112.927 39.152 113.297 39.3043C113.666 39.4509 114.075 39.6032 114.529 39.7611C115.458 40.1052 116.27 40.4493 116.965 40.7877C117.654 41.1318 118.23 41.5267 118.69 41.9779C119.149 42.4292 119.485 42.9594 119.714 43.5686C119.938 44.1834 120.05 44.9223 120.05 45.791C120.05 47.4776 119.462 48.7918 118.286 49.7225C117.11 50.6532 115.341 51.1158 112.972 51.1158C112.177 51.1158 111.46 51.0707 110.822 50.9748C110.183 50.8789 109.618 50.7604 109.125 50.6194C108.632 50.484 108.206 50.3374 107.854 50.1794C107.495 50.0215 107.198 49.8748 106.958 49.7338L108.1 46.4961C108.632 46.7894 109.293 47.0545 110.082 47.2914C110.866 47.5283 111.83 47.6468 112.972 47.6468Z" fill="white"/>
<path d="M21.356 18.6087C21.5464 18.9359 21.7592 19.342 21.9944 19.8214C22.224 20.2953 22.4648 20.7973 22.7056 21.3275C22.9464 21.8521 23.1872 22.3879 23.4224 22.9294C23.6632 23.4709 23.876 23.973 24.0776 24.4355C24.2736 23.973 24.492 23.4709 24.7272 22.9294C24.9568 22.3879 25.1976 21.8521 25.4384 21.3275C25.6792 20.7973 25.9144 20.2953 26.1496 19.8214C26.3848 19.342 26.592 18.9359 26.7824 18.6087H28.2552C28.3336 19.2687 28.4064 19.9681 28.4792 20.7127C28.5464 21.4572 28.6136 22.2187 28.6696 22.9971C28.7256 23.7755 28.776 24.554 28.8264 25.3436C28.8768 26.1277 28.916 26.8948 28.9552 27.645H27.348C27.3088 26.5902 27.2696 25.5129 27.2192 24.396C27.1744 23.2848 27.1016 22.2074 27.0008 21.1639C26.9112 21.3613 26.7992 21.6039 26.6648 21.8803C26.536 22.1567 26.4016 22.4613 26.2504 22.7884C26.1048 23.1099 25.9592 23.4484 25.808 23.7981C25.6568 24.1478 25.5056 24.4806 25.3656 24.8078C25.2256 25.1349 25.0912 25.4395 24.968 25.7216C24.8504 26.0036 24.744 26.2462 24.66 26.4436H23.4448C23.3552 26.2462 23.2544 26.0036 23.1312 25.7159C23.0136 25.4283 22.8792 25.1237 22.7392 24.7965C22.5936 24.4693 22.448 24.1309 22.2968 23.7868C22.1456 23.4371 21.9944 23.1043 21.8488 22.7771C21.7032 22.4613 21.5632 22.1567 21.4344 21.8746C21.3056 21.5926 21.1936 21.3557 21.0984 21.1639C21.0032 22.2074 20.9304 23.2848 20.88 24.396C20.8352 25.5129 20.7904 26.5902 20.7568 27.645H19.1496C19.1832 26.8948 19.228 26.1221 19.2728 25.3211C19.3232 24.5258 19.3792 23.7304 19.4352 22.9407C19.4912 22.1567 19.5528 21.3952 19.6256 20.6563C19.6928 19.9173 19.7712 19.2348 19.8496 18.6087H21.356Z" fill="white"/>
<path d="M33.4296 22.6079C33.8216 21.9593 34.2024 21.2993 34.572 20.6281C34.9416 19.9568 35.2776 19.2856 35.58 18.6087H37.3944C36.9128 19.5281 36.4088 20.4419 35.888 21.3501C35.3616 22.2582 34.8072 23.1776 34.208 24.0971V27.645H32.5784V24.1253C31.9848 23.1946 31.4192 22.2695 30.8928 21.3613C30.3664 20.4476 29.8624 19.5281 29.3808 18.6087H31.296C31.5984 19.2856 31.9288 19.9568 32.2928 20.6281C32.6568 21.2993 33.0376 21.9593 33.4296 22.6079Z" fill="white"/>
<path d="M47.1328 18.6087V20.0301H44.372V27.645H42.7312V20.0301H39.9704V18.6087H47.1328Z" fill="white"/>
<path fill-rule="evenodd" clip-rule="evenodd" d="M50.5264 18.5128C51.82 18.5128 52.8112 18.7553 53.4944 19.2348C54.1832 19.7086 54.5248 20.4419 54.5248 21.4234C54.5248 22.6474 53.9256 23.4822 52.7272 23.9165C52.8896 24.114 53.0744 24.3565 53.2816 24.6442C53.4888 24.9319 53.7016 25.2421 53.9144 25.5749C54.1328 25.9133 54.34 26.2574 54.536 26.6071C54.7376 26.9625 54.9112 27.3066 55.068 27.645H53.2424C53.08 27.3291 52.9008 27.0189 52.7104 26.6974C52.52 26.3815 52.3296 26.0713 52.1336 25.7723C51.9432 25.4734 51.7528 25.1913 51.5624 24.9262C51.372 24.6611 51.1928 24.4242 51.0304 24.2155C50.9072 24.2211 50.8064 24.2268 50.7168 24.2268C50.6328 24.2268 50.5488 24.2268 50.4704 24.2268H49.6808V27.645H48.0512V18.7384C48.4488 18.6482 48.8688 18.5918 49.3224 18.5636C49.7704 18.5297 50.168 18.5128 50.5264 18.5128ZM50.6384 19.9342C50.2968 19.9342 49.9776 19.9512 49.6808 19.9737V22.8956H50.3976C50.7896 22.8956 51.1424 22.873 51.4448 22.8335C51.7472 22.7884 51.9992 22.7094 52.2008 22.5966C52.4024 22.4838 52.5592 22.3315 52.66 22.1397C52.7664 21.9479 52.8168 21.7054 52.8168 21.4121C52.8168 21.1301 52.7664 20.8988 52.66 20.707C52.5592 20.5152 52.408 20.3629 52.212 20.2501C52.0216 20.1373 51.7864 20.0583 51.5232 20.0076C51.2544 19.9624 50.9576 19.9342 50.6384 19.9342Z" fill="white"/>
<path d="M56.0144 27.645V18.6087H61.7768V20.0019H57.644V22.23H61.3232V23.6007H57.644V26.2518H62.0848V27.645H56.0144Z" fill="white"/>
<path d="M69.3256 27.645C69.0344 27.1487 68.704 26.6184 68.34 26.0487C67.976 25.479 67.6008 24.9037 67.2144 24.3227C66.828 23.7473 66.4304 23.1889 66.0272 22.6418C65.6296 22.1003 65.2488 21.6095 64.8848 21.1752V27.645H63.2776V18.6087H64.6104C64.9576 18.9697 65.3272 19.404 65.7248 19.9061C66.1224 20.4024 66.52 20.9214 66.9232 21.4629C67.3264 22.0044 67.7128 22.5402 68.088 23.0874C68.4632 23.6289 68.7992 24.1365 69.0904 24.6047V18.6087H70.7088V27.645H69.3256Z" fill="white"/>
<path fill-rule="evenodd" clip-rule="evenodd" d="M80.1504 23.1212C80.1504 23.8996 80.0272 24.5821 79.7864 25.1575C79.5456 25.7385 79.204 26.2236 78.756 26.6071C78.3136 26.9963 77.776 27.284 77.1544 27.4701C76.5272 27.6563 75.8328 27.7465 75.0768 27.7465C74.7128 27.7465 74.304 27.7353 73.8448 27.7014C73.3856 27.6732 72.9488 27.6112 72.5344 27.5153V18.7384C72.9488 18.6425 73.3912 18.5805 73.856 18.5523C74.3208 18.5297 74.7352 18.5128 75.0992 18.5128C75.8496 18.5128 76.5384 18.603 77.16 18.7835C77.7816 18.9584 78.3136 19.2404 78.756 19.6184C79.204 19.9963 79.5456 20.4757 79.7864 21.0511C80.0272 21.6321 80.1504 22.3202 80.1504 23.1212ZM74.1696 26.2912C74.2648 26.2969 74.388 26.3025 74.5448 26.3082C74.7016 26.3138 74.9088 26.3138 75.1776 26.3138C76.2752 26.3138 77.0928 26.0318 77.6304 25.4734C78.1736 24.9149 78.4424 24.1252 78.4424 23.1212C78.4424 22.0946 78.1792 21.3049 77.6528 20.7578C77.1264 20.2106 76.3088 19.9342 75.2056 19.9342C74.7184 19.9342 74.3768 19.9512 74.1696 19.9737V26.2912Z" fill="white"/>
<path d="M81.612 18.6087H83.2472V27.645H81.612V18.6087Z" fill="white"/>
<path d="M91.1152 27.645C90.824 27.1487 90.4936 26.6184 90.1352 26.0487C89.7712 25.479 89.396 24.9037 89.0096 24.3227C88.6176 23.7473 88.2256 23.1889 87.8224 22.6418C87.4192 22.1003 87.0384 21.6095 86.6744 21.1752V27.645H85.0728V18.6087H86.4056C86.7472 18.9697 87.1224 19.404 87.52 19.9061C87.9176 20.4024 88.3152 20.9214 88.7128 21.4629C89.116 22.0044 89.5024 22.5402 89.8832 23.0874C90.2584 23.6289 90.5888 24.1365 90.8856 24.6047V18.6087H92.504V27.645H91.1152Z" fill="white"/>
<path d="M98.524 19.844C97.6 19.844 96.8944 20.1373 96.4072 20.7127C95.92 21.288 95.6736 22.0946 95.6736 23.1212C95.6736 23.6063 95.7352 24.0519 95.8472 24.4581C95.9648 24.8585 96.1384 25.2083 96.368 25.4903C96.5976 25.778 96.8832 26.0036 97.2248 26.1672C97.5608 26.3251 97.964 26.4041 98.4176 26.4041C98.7032 26.4041 98.9496 26.3928 99.1568 26.3702C99.364 26.3533 99.532 26.3251 99.6496 26.2913V23.0423H101.285V27.3856C101.055 27.4702 100.68 27.5661 100.142 27.6732C99.6048 27.7748 98.9888 27.8255 98.2888 27.8255C97.6448 27.8255 97.0512 27.724 96.5192 27.5153C95.9816 27.3066 95.528 27.002 95.1528 26.6015C94.7776 26.201 94.4864 25.7103 94.2792 25.1293C94.072 24.5427 93.9656 23.8771 93.9656 23.1212C93.9656 22.3654 94.0776 21.6941 94.3072 21.1131C94.5368 20.5265 94.8504 20.0358 95.248 19.6297C95.6456 19.2235 96.1104 18.9189 96.648 18.7102C97.18 18.5015 97.7512 18.4 98.356 18.4C98.7704 18.4 99.14 18.4282 99.4648 18.4846C99.784 18.541 100.064 18.6031 100.299 18.6707C100.529 18.7441 100.725 18.8174 100.876 18.8907C101.027 18.9697 101.128 19.0261 101.19 19.06L100.697 20.4081C100.439 20.2501 100.12 20.1148 99.7336 20.0076C99.3528 19.9004 98.9496 19.844 98.524 19.844Z" fill="white"/>
</g>
<defs>
<clipPath id="clip0">
<rect width="100.8" height="32.7158" fill="white" transform="translate(19.2 18.4)"/>
</clipPath>
</defs>
</svg>
