<svg width="22" height="22" viewBox="0 0 22 22" fill="none" xmlns="http://www.w3.org/2000/svg">
<path id="Vector" d="M16.4443 0.539396C16.6916 0.815593 16.8275 1.16512 16.8275 1.52686V20.4721C16.8276 20.7635 16.7393 21.0489 16.5732 21.2945C16.4071 21.5401 16.17 21.7358 15.8899 21.8583C15.6099 21.9809 15.2986 22.0253 14.9927 21.9862C14.6868 21.9472 14.3991 21.8263 14.1636 21.6379L7.73417 16.4977H2.91245C2.14002 16.4977 1.39923 16.208 0.853037 15.6924C0.306846 15.1767 0 14.4773 0 13.748V8.24848C0 7.5192 0.306846 6.81979 0.853037 6.30411C1.39923 5.78843 2.14002 5.49873 2.91245 5.49873H7.73417L14.1649 0.360967C14.4924 0.0995404 14.9166 -0.0283887 15.344 0.0052986C15.7714 0.0389859 16.1672 0.231533 16.4443 0.540618V0.539396ZM19.551 6.89194C19.7707 6.7657 20.0346 6.72698 20.2845 6.78426C20.5345 6.84155 20.7502 6.99016 20.8842 7.19747C21.6272 8.34625 22 9.63191 22 11.0349C22 12.4391 21.6272 13.7248 20.8842 14.8736C20.8197 14.9798 20.7332 15.0727 20.63 15.1468C20.5268 15.221 20.4089 15.2749 20.2833 15.3053C20.1577 15.3357 20.0269 15.3421 19.8986 15.3239C19.7703 15.3058 19.6472 15.2637 19.5365 15.1999C19.4258 15.1361 19.3297 15.052 19.254 14.9526C19.1783 14.8532 19.1244 14.7405 19.0956 14.6211C19.0668 14.5017 19.0636 14.3781 19.0862 14.2575C19.1088 14.1369 19.1568 14.0219 19.2273 13.9191C19.7814 13.0612 20.0584 12.1067 20.0584 11.0349C20.0584 9.96433 19.7814 9.00986 19.2273 8.15193C19.0936 7.94445 19.0526 7.69535 19.1133 7.45933C19.174 7.22332 19.3314 7.01969 19.551 6.89316V6.89194Z" fill="black"/>
</svg>
