<svg width="28" height="28" viewBox="0 0 28 28" fill="none" xmlns="http://www.w3.org/2000/svg">
<g id="bx:bx-like">
<path id="Vector" d="M23.3335 9.33337H16.7862L18.0963 5.40521C18.332 4.69587 18.213 3.90954 17.7755 3.30287C17.338 2.69621 16.6287 2.33337 15.8808 2.33337H14.0002C13.6537 2.33337 13.3258 2.48737 13.103 2.75337L7.61966 9.33337H4.66683C3.38 9.33337 2.3335 10.3799 2.3335 11.6667V22.1667C2.3335 23.4535 3.38 24.5 4.66683 24.5H20.1917C20.6664 24.4985 21.1294 24.3529 21.5196 24.0825C21.9098 23.8121 22.2087 23.4296 22.3768 22.9857L25.5933 14.4095C25.6422 14.2785 25.6671 14.1398 25.6668 14V11.6667C25.6668 10.3799 24.6203 9.33337 23.3335 9.33337ZM4.66683 11.6667H7.00016V22.1667H4.66683V11.6667ZM23.3335 13.7889L20.1917 22.1667H9.3335V10.9224L14.5462 4.66671H15.8832L14.0608 10.1302C14.0017 10.3056 13.9852 10.4925 14.0127 10.6755C14.0402 10.8586 14.111 11.0324 14.2191 11.1826C14.3272 11.3328 14.4696 11.4551 14.6344 11.5393C14.7992 11.6235 14.9818 11.6671 15.1668 11.6667H23.3335V13.7889Z" fill="#030303"/>
</g>
</svg>
