<svg width="28" height="28" viewBox="0 0 28 28" fill="none" xmlns="http://www.w3.org/2000/svg">
<g id="bx:bx-share">
<path id="Vector" d="M15.1665 8.225V4.66667C15.1665 4.35725 15.2894 4.0605 15.5082 3.84171C15.727 3.62292 16.0238 3.5 16.3332 3.5C16.6393 3.50129 16.9326 3.6228 17.1499 3.83833L25.3165 12.005C25.4259 12.1135 25.5127 12.2425 25.5719 12.3847C25.6311 12.5268 25.6616 12.6793 25.6616 12.8333C25.6616 12.9873 25.6311 13.1398 25.5719 13.282C25.5127 13.4242 25.4259 13.5532 25.3165 13.6617L17.1499 21.8283C16.9861 21.9889 16.7786 22.0976 16.5534 22.1409C16.3282 22.1842 16.0952 22.1601 15.8836 22.0717C15.6719 21.9833 15.4911 21.8345 15.3635 21.6439C15.236 21.4533 15.1675 21.2293 15.1665 21V17.3833H14.1749C12.3316 17.3558 10.5045 17.7298 8.82024 18.4792C7.13601 19.2287 5.63505 20.3357 4.42152 21.7233C4.27528 21.918 4.07178 22.0621 3.83955 22.1353C3.60732 22.2085 3.35799 22.2073 3.12652 22.1317C2.89096 22.0522 2.68696 21.8995 2.54425 21.6959C2.40154 21.4924 2.32759 21.2485 2.33319 21C2.33319 10.36 11.7599 8.54 15.1665 8.225ZM14.1749 15.0267C14.9552 15.0242 15.7348 15.0749 16.5082 15.1783C16.7844 15.2202 17.0364 15.3599 17.2184 15.5718C17.4003 15.7838 17.5002 16.054 17.4999 16.3333V18.1883L22.8432 12.8333L17.4999 7.47833V9.33333C17.4999 9.64275 17.3769 9.9395 17.1581 10.1583C16.9394 10.3771 16.6426 10.5 16.3332 10.5C15.2715 10.5 6.87152 10.7333 5.05152 18.0017C7.69321 16.054 10.8928 15.0106 14.1749 15.0267Z" fill="black"/>
</g>
</svg>
