<svg width="92" height="92" viewBox="0 0 92 92" fill="none" xmlns="http://www.w3.org/2000/svg">
<g id="Group 238">
<circle id="Ellipse 2" cx="46" cy="46" r="46" fill="black"/>
<path id="Vector" d="M67.8688 67.4421V59.6166C67.8688 57.4254 67.551 55.2343 66.2798 53.0431C65.0087 50.852 63.4197 48.9738 61.1951 47.7217C58.9705 46.1566 54.2035 45.8436 51.9789 45.8436L46.8941 51.165L48.8009 55.2343V64.6249L45.6229 68.0682L42.445 64.6249V55.2343L44.6695 51.165L39.267 45.8436C36.7246 45.8436 31.9576 46.1566 29.733 47.7217C27.5084 48.9738 26.2372 50.852 24.966 53.0431C23.6948 55.2343 23.377 57.1124 23.377 59.6166V67.4421C23.377 67.4421 31.6398 70.8854 45.6229 70.8854C59.6061 70.8854 67.8688 67.4421 67.8688 67.4421ZM45.6229 21.1149C39.5848 21.1149 36.089 26.7493 37.0424 33.0097C37.9958 39.2701 41.1738 43.6524 45.6229 43.6524C50.0721 43.6524 53.2501 39.2701 54.2035 33.0097C55.1569 26.4362 51.6611 21.1149 45.6229 21.1149Z" fill="white"/>
</g>
</svg>
