<svg width="92" height="92" viewBox="0 0 92 92" fill="none" xmlns="http://www.w3.org/2000/svg">
<g id="Group 239">
<circle id="Ellipse 3" cx="46" cy="46" r="46" fill="black"/>
<path id="Vector" d="M26.1876 27.4894V39.8309C26.1876 40.9756 27.1014 41.8867 28.2435 41.8867H40.5851C41.7298 41.8867 42.6409 40.9733 42.6409 39.8309V27.4894C42.6409 26.3447 41.7275 25.4336 40.5851 25.4336H28.2435C27.0988 25.4336 26.1876 26.3473 26.1876 27.4894ZM24.1311 27.4894C24.1311 25.2183 25.9563 23.3771 28.2435 23.3771H40.5851C42.8565 23.3771 44.6977 25.2022 44.6977 27.4894V39.8309C44.6977 42.1023 42.8725 43.9435 40.5851 43.9435H28.2435C25.9724 43.9435 24.1311 42.1184 24.1311 39.8309V27.4894ZM26.1876 52.1692V64.5107C26.1876 65.6554 27.1014 66.5665 28.2435 66.5665H40.5851C41.7298 66.5665 42.6409 65.6528 42.6409 64.5107V52.1692C42.6409 51.0245 41.7275 50.1133 40.5851 50.1133H28.2435C27.0988 50.1133 26.1876 51.0267 26.1876 52.1692ZM24.1311 52.1692C24.1311 49.8978 25.9563 48.0565 28.2435 48.0565H40.5851C42.8565 48.0565 44.6977 49.8817 44.6977 52.1692V64.5107C44.6977 66.7817 42.8725 68.623 40.5851 68.623H28.2435C25.9724 68.623 24.1311 66.7978 24.1311 64.5107V52.1692ZM50.8673 52.1692V64.5107C50.8673 65.6554 51.7807 66.5665 52.9231 66.5665H65.2647C66.4094 66.5665 67.3206 65.6528 67.3206 64.5107V52.1692C67.3206 51.0245 66.4068 50.1133 65.2647 50.1133H52.9231C51.7784 50.1133 50.8673 51.0267 50.8673 52.1692ZM48.8105 52.1692C48.8105 49.8978 50.6357 48.0565 52.9231 48.0565H65.2647C67.5358 48.0565 69.3771 49.8817 69.3771 52.1692V64.5107C69.3771 66.7817 67.5519 68.623 65.2647 68.623H52.9231C50.6517 68.623 48.8105 66.7978 48.8105 64.5107V52.1692ZM50.8673 27.4894V39.8309C50.8673 40.9756 51.7807 41.8867 52.9231 41.8867H65.2647C66.4094 41.8867 67.3206 40.9733 67.3206 39.8309V27.4894C67.3206 26.3447 66.4068 25.4336 65.2647 25.4336H52.9231C51.7784 25.4336 50.8673 26.3473 50.8673 27.4894ZM48.8105 27.4894C48.8105 25.2183 50.6357 23.3771 52.9231 23.3771H65.2647C67.5358 23.3771 69.3771 25.2022 69.3771 27.4894V39.8309C69.3771 42.1023 67.5519 43.9435 65.2647 43.9435H52.9231C50.6517 43.9435 48.8105 42.1184 48.8105 39.8309V27.4894Z" fill="white"/>
</g>
</svg>
