<svg width="7" height="13" viewBox="0 0 7 13" fill="none" xmlns="http://www.w3.org/2000/svg">
<path id="Vector" d="M5.99558 12.9987C5.86754 12.9991 5.74103 12.9709 5.62534 12.916C5.50966 12.8611 5.40774 12.781 5.32707 12.6816L1.18746 7.5392C1.06141 7.38585 0.992493 7.19349 0.992493 6.99497C0.992493 6.79645 1.06141 6.60409 1.18746 6.45074L5.47277 1.30836C5.61825 1.13334 5.8273 1.02327 6.05393 1.00237C6.28056 0.98148 6.50621 1.05147 6.68123 1.19695C6.85626 1.34242 6.96633 1.55147 6.98722 1.7781C7.00812 2.00473 6.93813 2.23038 6.79265 2.4054L2.96158 6.99925L6.66409 11.5931C6.76889 11.7189 6.83547 11.8721 6.85593 12.0346C6.8764 12.197 6.8499 12.3619 6.77958 12.5098C6.70925 12.6577 6.59804 12.7823 6.4591 12.8689C6.32016 12.9556 6.15931 13.0006 5.99558 12.9987Z" fill="white"/>
</svg>
