<svg width="30" height="19" viewBox="0 0 30 19" fill="none" xmlns="http://www.w3.org/2000/svg">
<g id="Group">
<path id="Vector" d="M1.00908 8.48749H26.1299L19.0801 2.39787C18.6582 2.03325 18.6118 1.39599 18.9764 0.974547C19.3396 0.552679 19.9773 0.506223 20.3992 0.870368L29.5968 8.81603C29.8168 9.00561 29.944 9.28107 29.9464 9.57202C29.9483 9.8625 29.8253 10.1398 29.6085 10.3327L23.6179 15.6749L20.4789 18.1573C20.294 18.3041 20.0726 18.375 19.8534 18.375C19.5559 18.375 19.2603 18.2436 19.0608 17.9921C18.715 17.5547 18.7896 16.9203 19.2265 16.5744L22.3204 14.1304L26.3832 10.5058H1.00891C0.451899 10.5058 0 10.0544 0 9.49689C-0.000469208 8.93987 0.451899 8.4875 1.00891 8.4875L1.00908 8.48749Z" fill="black"/>
</g>
</svg>
