<svg width="22" height="15" viewBox="0 0 22 15" fill="none" xmlns="http://www.w3.org/2000/svg">
<path id="Vector" d="M14.9286 15H1.57143C1.15466 15 0.754961 14.842 0.460261 14.5607C0.165561 14.2794 0 13.8978 0 13.5V1.5C0 1.10218 0.165561 0.720644 0.460261 0.43934C0.754961 0.158035 1.15466 0 1.57143 0H14.9286C15.3453 0 15.745 0.158035 16.0397 0.43934C16.3344 0.720644 16.5 1.10218 16.5 1.5V4.545L20.7586 1.6425C20.8758 1.5628 21.0138 1.51538 21.1574 1.50543C21.301 1.49547 21.4446 1.52336 21.5727 1.58605C21.7008 1.64874 21.8084 1.74382 21.8838 1.8609C21.9591 1.97799 21.9993 2.11259 22 2.25V12.75C21.9993 12.8874 21.9591 13.022 21.8838 13.1391C21.8084 13.2562 21.7008 13.3513 21.5727 13.4139C21.4446 13.4766 21.301 13.5045 21.1574 13.4946C21.0138 13.4846 20.8758 13.4372 20.7586 13.3575L16.5 10.455V13.5C16.5 13.8978 16.3344 14.2794 16.0397 14.5607C15.745 14.842 15.3453 15 14.9286 15Z" fill="black"/>
</svg>
